<?xml version="1.0" encoding="utf-8"?>
<svg xmlns="http://www.w3.org/2000/svg" xmlns:svg="http://www.w3.org/2000/svg" version="1.1" viewBox="0 0 1400 440">
	<title>The titlepage for the Standard Ebooks edition of Notre-Dame de Paris, by Victor Hugo</title>
	<g aria-label="NOTRE-DAME">
		<path d="m 370.75219,82.093566 h 0.18713 L 401.62938,130 h 17.59064 V 52.807016 h -17.59064 v 47.906434 h -0.18713 L 370.75219,52.807016 H 353.16154 V 130 h 17.59065 z"/>
		<path d="m 432.00219,91.356724 c 0,22.549706 16.09357,40.046786 38.92398,40.046786 22.17544,0 38.83041,-17.49708 38.83041,-40.046786 0,-22.549708 -17.40351,-39.953217 -38.83041,-39.953217 -21.23977,0 -38.92398,17.403509 -38.92398,39.953217 z m 18.99415,0 c 0,-11.508772 6.36258,-23.017544 19.92983,-23.017544 13.66082,0 19.83626,11.508772 19.83626,23.017544 0,11.508776 -5.80117,23.017546 -19.83626,23.017546 -14.40936,0 -19.92983,-11.50877 -19.92983,-23.017546 z"/>
		<path d="m 514.7288,68.245613 h 18.33918 V 130 h 17.59065 V 68.245613 h 18.33918 V 52.807016 H 514.7288 Z"/>
		<path d="M 580.3326,52.807016 V 130 h 17.59064 V 99.497075 L 621.50219,130 h 22.36257 l -26.5731,-31.906433 c 9.45029,-2.994152 15.81287,-10.760234 15.81287,-22.362574 0,-15.157895 -10.85381,-22.923977 -25.1696,-22.923977 z m 17.59064,34.245615 V 66.842104 h 2.05848 c 6.64327,0 14.59649,0.467836 14.59649,10.105263 0,9.637428 -7.95322,10.105264 -14.59649,10.105264 z"/>
		<path d="M 696.56506,52.807016 H 652.40132 V 130 h 44.16374 v -15.4386 h -26.5731 V 99.029239 h 25.4503 V 83.590642 h -25.4503 V 68.245613 h 26.5731 z"/>
		<path d="m 711.67763,95.754385 v 14.315795 h 30.12865 V 95.754385 Z"/>
		<path d="M 757.9788,52.807016 V 130 h 22.36258 c 21.23976,0 38.92398,-16.09357 38.92398,-38.643276 0,-22.45614 -17.77778,-38.549708 -38.92398,-38.549708 z M 775.56945,114.2807 V 68.526315 h 2.71345 c 13.09941,0 21.9883,10.011696 21.9883,22.923977 -0.0936,12.912278 -8.98245,22.830408 -21.9883,22.830408 z"/>
		<path d="m 871.26243,52.807016 h -16.2807 L 823.82384,130 h 18.90058 l 5.7076,-15.4386 h 29.38012 L 883.51974,130 h 18.90059 z m 0.56141,46.31579 h -17.40351 l 8.60818,-22.45614 h 0.18714 z"/>
		<path d="m 974.15282,130 h 17.59064 L 984.81948,52.807016 H 966.10603 L 948.98323,97.345029 931.86042,52.807016 H 913.14697 L 906.22299,130 h 17.59064 l 3.64913,-45.754387 h 0.46783 l 15.81287,45.286547 h 10.47953 l 15.81287,-45.286547 h 0.46783 z"/>
		<path d="m 1047.9539,52.807016 h -44.1637 V 130 h 44.1637 v -15.4386 h -26.5731 V 99.029239 h 25.4503 V 83.590642 h -25.4503 V 68.245613 h 26.5731 z"/>
	</g>
	<g aria-label="DE PARIS">
		<path d="M 470.36915,152.80702 V 230 h 22.36257 c 21.23977,0 38.92398,-16.09357 38.92398,-38.64328 0,-22.45614 -17.77778,-38.5497 -38.92398,-38.5497 z m 17.59064,61.47368 v -45.75439 h 2.71345 c 13.09942,0 21.98831,10.0117 21.98831,22.92398 -0.0936,12.91228 -8.98246,22.83041 -21.98831,22.83041 z"/>
		<path d="M 588.61184,152.80702 H 544.4481 V 230 h 44.16374 v -15.4386 h -26.5731 v -15.53216 h 25.45029 v -15.4386 h -25.45029 v -15.34503 h 26.5731 z"/>
		<path d="M 634.30921,152.80702 V 230 h 17.59065 v -28.63158 h 10.57309 c 15.06433,0 26.38597,-8.88889 26.38597,-24.79532 0,-16 -11.32164,-23.76608 -26.38597,-23.76608 z m 17.59065,34.52631 V 166.8421 h 4.95906 c 6.92398,0 13.47368,2.33919 13.47368,10.2924 0,7.85965 -6.5497,10.19883 -13.47368,10.19883 z"/>
		<path d="M 734.80044,152.80702 H 718.51973 L 687.36184,230 h 18.90058 l 5.70761,-15.4386 h 29.38011 L 747.05775,230 h 18.90058 z m 0.5614,46.31579 h -17.40351 l 8.60819,-22.45614 h 0.18713 z"/>
		<path d="M 773.87794,152.80702 V 230 h 17.59064 V 199.49708 L 815.04753,230 H 837.4101 L 810.837,198.09357 c 9.45029,-2.99416 15.81287,-10.76024 15.81287,-22.36258 0,-15.15789 -10.8538,-22.92397 -25.16959,-22.92397 z m 17.59064,34.24561 V 166.8421 h 2.05848 c 6.64328,0 14.59649,0.46784 14.59649,10.10527 0,9.63742 -7.95321,10.10526 -14.59649,10.10526 z"/>
		<path d="M 863.53728,152.80702 H 845.94663 V 230 h 17.59065 z"/>
		<path d="m 906.43786,151.40351 c -12.44444,0 -25.16959,9.16959 -25.16959,23.57895 0,8.04678 5.4269,15.25146 14.69006,19.83625 9.16959,4.5848 17.40351,7.11111 17.40351,12.72515 0,7.20468 -7.29825,7.57895 -11.13451,7.57895 -8.60818,0 -18.90058,-8.70176 -18.90058,-8.70176 l -8.79532,14.78363 c 0,0 10.94737,10.19883 29.00585,10.19883 15.06432,0 29.09941,-6.45614 29.09941,-24.88889 0,-10.10526 -9.45029,-17.40351 -18.05848,-21.05263 -8.79532,-3.74269 -16.09357,-6.83041 -16.09357,-11.13451 0,-4.21052 3.18129,-6.92397 9.1696,-6.92397 7.95321,0 15.62573,5.33333 15.62573,5.33333 l 7.11111,-14.03509 c 0,0 -9.91813,-7.29824 -23.95322,-7.29824 z"/>
	</g>
	<g aria-label="VICTOR HUGO">
		<path d="m 435.66557,390 h 10.38597 l 24.2807,-57.89474 h -14.87719 l -14.5965,38.03509 -14.59649,-38.03509 h -14.87719 z"/>
		<path d="M 490.71492,332.10526 H 477.52193 V 390 h 13.19299 z"/>
		<path d="m 532.79167,378.07018 c -13.26315,0 -19.08772,-9.26316 -19.08772,-17.05264 0,-7.71929 5.82457,-16.98245 19.08772,-16.98245 6.73685,0 11.36842,3.57895 11.36842,3.57895 l 5.61404,-11.22807 c 0,0 -6.45614,-5.33334 -19.01754,-5.33334 -16.42106,0 -31.36842,13.47369 -31.36842,30.10527 0,16.5614 15.01754,29.89473 31.36842,29.89473 12.5614,0 19.01754,-5.33333 19.01754,-5.33333 l -5.61404,-11.22807 c 0,0 -4.63157,3.57895 -11.36842,3.57895 z"/>
		<path d="m 556.24123,343.68421 h 13.75439 V 390 h 13.19298 v -46.31579 h 13.75439 v -11.57895 h -40.70176 z"/>
		<path d="m 601.90461,361.01754 c 0,16.91228 12.07018,30.03509 29.19299,30.03509 16.63158,0 29.1228,-13.12281 29.1228,-30.03509 0,-16.91228 -13.05263,-29.96491 -29.1228,-29.96491 -15.92983,0 -29.19299,13.05263 -29.19299,29.96491 z m 14.24562,0 c 0,-8.63157 4.77193,-17.26315 14.94737,-17.26315 10.24561,0 14.87719,8.63158 14.87719,17.26315 0,8.63158 -4.35088,17.26316 -14.87719,17.26316 -10.80702,0 -14.94737,-8.63158 -14.94737,-17.26316 z"/>
		<path d="M 671.04166,332.10526 V 390 h 13.19299 V 367.12281 L 701.91886,390 h 16.77193 l -19.92983,-23.92982 c 7.08772,-2.24562 11.85965,-8.07018 11.85965,-16.77193 0,-11.36842 -8.14035,-17.19299 -18.87719,-17.19299 z m 13.19299,25.68421 v -15.15789 h 1.54386 c 4.98245,0 10.94736,0.35088 10.94736,7.57895 0,7.22807 -5.96491,7.57894 -10.94736,7.57894 z"/>
		<path d="m 763.72479,366.77193 h 18.66666 V 390 h 13.19299 v -57.89474 h -13.19299 v 23.08772 H 763.72479 V 332.10526 H 750.53181 V 390 h 13.19298 z"/>
		<path d="M 853.47698,332.10526 H 840.284 v 33.47369 c 0,9.68421 -2.94737,12.49123 -9.40351,12.49123 -6.45614,0 -9.40351,-2.80702 -9.40351,-12.49123 V 332.10526 H 808.284 v 37.33334 c 0,14.31579 7.85965,21.61403 22.59649,21.61403 14.73684,0 22.59649,-7.29824 22.59649,-21.61403 z"/>
		<path d="m 918.557,357.57895 h -26.73684 v 10.17544 h 13.33333 c 0,7.08772 -6.24561,11.15789 -12.5614,11.15789 -8.14035,0 -14.73684,-8 -14.73684,-17.82456 0,-10.03509 6.59649,-18.10526 14.73684,-18.10526 5.1228,0 9.54386,2.03508 12.91228,7.43859 l 8.63158,-9.47368 c -5.05263,-6.10526 -12.14035,-9.89474 -22.31579,-9.89474 -16.2807,0 -28.21053,13.40351 -28.21053,30.03509 0,16.5614 12.63158,29.96491 28.21053,29.96491 11.36842,0 23.57894,-6.24561 26.73684,-20.91228 z"/>
		<path d="m 926.72368,361.01754 c 0,16.91228 12.07017,30.03509 29.19298,30.03509 16.63158,0 29.1228,-13.12281 29.1228,-30.03509 0,-16.91228 -13.05263,-29.96491 -29.1228,-29.96491 -15.92983,0 -29.19298,13.05263 -29.19298,29.96491 z m 14.24561,0 c 0,-8.63157 4.77193,-17.26315 14.94737,-17.26315 10.24561,0 14.87719,8.63158 14.87719,17.26315 0,8.63158 -4.35088,17.26316 -14.87719,17.26316 -10.80702,0 -14.94737,-8.63158 -14.94737,-17.26316 z"/>
	</g>
</svg>
